<svg xmlns="http://www.w3.org/2000/svg" viewBox="0 0 233.19 225.39">
	<title>Asset 2</title>
	<path
		d="M95.6,69.86c18.57-2.5,33.29-17.88,32.31-34.17C126.32,9.37,90.05,3.74,62.81,3.74c19,0,40.81,12.11,40.81,32.22,0,21.47-19.57,38.11-36.49,38.11,20.66,0,51.76,12.64,46.09,50.4C107.59,162,70,168.16,70,168.16c34,0,74.47-18.18,74.48-51.23C144.44,86,116,69.86,95.6,69.86Z"
		style="stroke:#fff;fill:#fff;stroke-linecap:round;stroke-linejoin:round" />
	<path
		d="M55.75,169.27c-32.55,0-45.65-13.89-44.06-30.16S29.15,116.48,45,123.63,53,152.6,39.87,151,29.5,139.11,32.7,136.33C23.6,146.65,27.46,164.19,55.75,169.27Z"
		style="stroke:#fff;fill:#fff;stroke-linecap:round;stroke-linejoin:round" />
	<path
		d="M45,112.45V21.67C45,6.19,52.89,3.74,52.89,3.74H.5S16.22,6.59,16.22,17.31V116C21.14,111.43,33.65,106.5,45,112.45Z"
		style="stroke:#fff;fill:#fff;stroke-linecap:round;stroke-linejoin:round" />
	<path
		d="M183.85,124.25c18.58-2.51,33.3-17.88,32.31-34.18-1.59-26.31-37.85-31.94-65.09-31.94,19.05,0,40.81,12.1,40.81,32.22,0,21.47-19.57,38.1-36.49,38.1,20.66,0,51.76,12.65,46.09,50.41-5.64,37.53-43.27,43.68-43.27,43.68,34,0,74.48-17.76,74.48-54.38C232.69,138,204.26,124.25,183.85,124.25Z"
		style="stroke:#fff;fill:#fff;stroke-linecap:round;stroke-linejoin:round" />
	<path
		d="M144,223.66c-32.54,0-45.64-13.89-44.06-30.17s17.47-22.62,33.35-15.48,7.93,29-5.16,27.39-10.37-11.91-7.17-14.68C111.85,201,115.72,218.58,144,223.66Z"
		style="stroke:#fff;fill:#fff;stroke-linecap:round;stroke-linejoin:round" />
	<path
		d="M213.4,3.2a33.21,33.21,0,0,1,14.37,12.47A28.39,28.39,0,0,1,232,35.76c-5.33,31.18-55.83,19.11-41.95-8.14,4.17-8.19,15-12.22,23.53-8.72-1-3.26-5-4.35-8.38-4.68-18-1.74-31.85,7-42.94,20.44l-7,8.49c5.23-25.56,21.06-34.79,28.51-38.53C193.6-.35,204.3-.83,213.4,3.2Z"
		style="stroke:#fff;fill:#fff;stroke-linecap:round;stroke-linejoin:round" />
	<path
		d="M51.42,217.06c13.85-4,31.53-11.26,32.15-28.15L56.17,201.4c4.69-5.4,9.38-10.8,14.36-15.92,2.84-2.92,6.1-5.89,10.14-6.33a47.72,47.72,0,0,0-24.25,6.51C44.91,192.39,42.48,210.93,42.31,223,43.54,219.44,47.78,218.11,51.42,217.06Z"
		style="stroke:#fff;fill:#fff;stroke-linecap:round;stroke-linejoin:round" />
	<path
		d="M40.54,180.3c-5,8.38-17.39,13.57-26.76,12.62a1.22,1.22,0,0,1-.76-.27,1.24,1.24,0,0,1-.22-1c.84-13,13.12-17.44,24.2-16.84L24.94,183.5Z"
		style="stroke:#fff;fill:#fff;stroke-linecap:round;stroke-linejoin:round" />
	<path
		d="M142.06,13.51c.15-.79.29-1.58.44-2.37a32.25,32.25,0,0,0-8.2,19.12,49.5,49.5,0,0,1-1.59-13.33,17.08,17.08,0,0,1,9-14.8A1.51,1.51,0,0,1,143,1.89a1.55,1.55,0,0,1,.66.8c2.54,5.25,4.73,11.81,3.33,17.69a19.73,19.73,0,0,1-3.2,6.48c-.85,1.21-5,4.17-5.2,5.26Z"
		style="stroke:#fff;fill:#fff;stroke-linecap:round;stroke-linejoin:round" />
	<circle cx="22.24" cy="215.64" r="9.25"
		style="stroke:#fff;fill:#fff;stroke-linecap:round;stroke-linejoin:round" />
	<path d="M95.05,216.09a5.58,5.58,0,1,1-5.57-5.58A5.57,5.57,0,0,1,95.05,216.09Z"
		style="stroke:#fff;fill:#fff;stroke-linecap:round;stroke-linejoin:round" />
	<path d="M127,6.13a5.06,5.06,0,1,1-5.06-5.06A5.07,5.07,0,0,1,127,6.13Z"
		style="stroke:#fff;fill:#fff;stroke-linecap:round;stroke-linejoin:round" />
	<path d="M165.33,6.52a5.06,5.06,0,1,1-5.06-5.06A5.07,5.07,0,0,1,165.33,6.52Z"
		style="stroke:#fff;fill:#fff;stroke-linecap:round;stroke-linejoin:round" />
</svg>