<svg xmlns="http://www.w3.org/2000/svg" viewBox="0 0 500 500"><title>breeze_logo</title><rect width="500" height="500" style="fill:none"/><path d="M202.26,143.79c18.57-2.5,33.29-17.88,32.31-34.17C233,83.3,196.71,77.67,169.47,77.67c19.05,0,40.81,12.11,40.81,32.22,0,21.47-19.57,38.11-36.49,38.11,20.66,0,51.76,12.64,46.09,50.4-5.63,37.54-43.26,43.69-43.26,43.69,34,0,74.47-18.18,74.48-51.23C251.1,159.88,222.66,143.79,202.26,143.79Z" style="stroke:#000;stroke-linecap:round;stroke-linejoin:round"/><path d="M162.41,243.2c-32.55,0-45.65-13.89-44.06-30.16s17.46-22.63,33.34-15.48,7.94,29-5.16,27.39-10.37-11.91-7.17-14.69C130.26,220.58,134.12,238.12,162.41,243.2Z" style="stroke:#000;stroke-linecap:round;stroke-linejoin:round"/><path d="M151.69,186.38V95.6c0-15.48,7.86-17.93,7.86-17.93H107.16s15.72,2.85,15.72,13.57V190C127.8,185.36,140.31,180.43,151.69,186.38Z" style="stroke:#000;stroke-linecap:round;stroke-linejoin:round"/><path d="M290.51,198.18c18.58-2.51,33.3-17.88,32.31-34.18-1.59-26.32-37.85-31.95-65.09-31.95,19,0,40.81,12.11,40.81,32.23,0,21.47-19.57,38.1-36.49,38.1,20.65,0,51.75,12.65,46.09,50.41-5.64,37.53-43.27,43.68-43.27,43.68,34,0,74.48-17.76,74.48-54.38C339.35,211.9,310.92,198.18,290.51,198.18Z" style="stroke:#000;stroke-linecap:round;stroke-linejoin:round"/><path d="M250.66,297.59c-32.54,0-45.64-13.89-44.06-30.17S224.07,244.8,240,251.94s7.93,29-5.16,27.39-10.37-11.91-7.17-14.69C218.51,275,222.38,292.51,250.66,297.59Z" style="stroke:#000;stroke-linecap:round;stroke-linejoin:round"/><path d="M320.06,77.13A33.21,33.21,0,0,1,334.43,89.6a28.39,28.39,0,0,1,4.18,20.09c-5.33,31.18-55.83,19.11-41.95-8.14,4.17-8.19,15-12.22,23.53-8.72-1-3.26-5-4.35-8.38-4.68-18-1.74-31.85,7-42.94,20.44l-7,8.49c5.23-25.56,21.06-34.79,28.51-38.53C300.26,73.58,311,73.1,320.06,77.13Z" style="stroke:#000;stroke-linecap:round;stroke-linejoin:round"/><path d="M158.08,291c13.85-4,31.53-11.26,32.15-28.15l-27.4,12.48c4.69-5.39,9.38-10.79,14.36-15.91,2.84-2.92,6.1-5.89,10.14-6.33a47.81,47.81,0,0,0-24.25,6.5c-11.51,6.73-13.94,25.28-14.11,37.36C150.2,293.37,154.44,292,158.08,291Z" style="stroke:#000;stroke-linecap:round;stroke-linejoin:round"/><path d="M147.2,254.23c-5,8.38-17.39,13.57-26.76,12.62a1.22,1.22,0,0,1-.76-.27,1.2,1.2,0,0,1-.22-.95c.84-13,13.12-17.44,24.2-16.84l-12.06,8.64Z" style="stroke:#000;stroke-linecap:round;stroke-linejoin:round"/><path d="M248.72,87.44c.14-.79.29-1.58.44-2.37a32.25,32.25,0,0,0-8.2,19.12,49.1,49.1,0,0,1-1.59-13.33,17.08,17.08,0,0,1,9-14.8,1.51,1.51,0,0,1,1.27-.24,1.55,1.55,0,0,1,.66.8c2.54,5.25,4.73,11.81,3.33,17.69a20,20,0,0,1-3.2,6.48c-.85,1.21-5,4.17-5.2,5.26Z" style="stroke:#000;stroke-linecap:round;stroke-linejoin:round"/><circle cx="128.9" cy="289.57" r="9.25" style="stroke:#000;stroke-linecap:round;stroke-linejoin:round"/><path d="M201.71,290a5.58,5.58,0,1,1-5.57-5.58A5.57,5.57,0,0,1,201.71,290Z" style="stroke:#000;stroke-linecap:round;stroke-linejoin:round"/><path d="M233.63,80.06A5.06,5.06,0,1,1,228.57,75,5.07,5.07,0,0,1,233.63,80.06Z" style="stroke:#000;stroke-linecap:round;stroke-linejoin:round"/><path d="M272,80.45a5.06,5.06,0,1,1-5.06-5.06A5.07,5.07,0,0,1,272,80.45Z" style="stroke:#000;stroke-linecap:round;stroke-linejoin:round"/></svg>