<svg width="706" height="689" viewBox="0 0 706 689" fill="none" xmlns="http://www.w3.org/2000/svg">
<g id="sofa promotional header">
<g id="Group 129">
<circle id="Ellipse 60" cx="380.5" cy="325.5" r="325.5" fill="#ECD2FA" fill-opacity="0.35"/>
<circle id="Ellipse 61" cx="324" cy="365" r="324" fill="#ECD2FA" fill-opacity="0.35"/>
</g>
<g id="Group 130">
<path id="Vector 14" d="M595.665 186.813C545.665 158.813 557.888 136.5 559.389 120.5C559.389 110.9 582.832 65.9793 591.665 59.3126C597.165 55.146 614.865 50.3126 641.665 64.3126C702.865 89.9126 697.498 133.313 687.165 151.813C679.665 172.479 650.865 208.413 595.665 186.813Z" fill="#00C1FE" stroke="#00C1FE" stroke-linecap="round" stroke-linejoin="round"/>
<path id="50% off" d="M599.858 124.28C598.482 124.28 597.14 124.023 595.833 123.51C594.527 122.997 593.512 122.378 592.788 121.655L595.413 117.595C595.833 118.108 596.428 118.54 597.198 118.89C597.992 119.217 598.75 119.38 599.473 119.38C600.01 119.38 600.512 119.263 600.978 119.03C601.445 118.797 601.818 118.447 602.098 117.98C602.378 117.513 602.518 116.942 602.518 116.265C602.518 115.518 602.367 114.865 602.063 114.305C601.783 113.745 601.363 113.313 600.803 113.01C600.267 112.683 599.625 112.52 598.878 112.52C598.155 112.52 597.467 112.625 596.813 112.835C596.16 113.022 595.39 113.348 594.503 113.815H594.468V100.795H606.053V105.695H598.843V109.44L598.248 108.39C598.575 108.343 598.89 108.308 599.193 108.285C599.497 108.262 599.8 108.25 600.103 108.25C601.737 108.25 603.113 108.612 604.233 109.335C605.377 110.058 606.252 111.015 606.858 112.205C607.465 113.395 607.768 114.69 607.768 116.09C607.768 117.63 607.418 119.018 606.718 120.255C606.018 121.492 605.062 122.472 603.848 123.195C602.658 123.918 601.328 124.28 599.858 124.28ZM620.494 124.035C619.164 124.035 617.904 123.802 616.714 123.335C615.547 122.868 614.509 122.157 613.599 121.2C612.712 120.22 612.012 118.995 611.499 117.525C610.985 116.032 610.729 114.282 610.729 112.275C610.729 110.035 610.974 108.168 611.464 106.675C611.954 105.158 612.63 103.945 613.494 103.035C614.38 102.125 615.419 101.483 616.609 101.11C617.799 100.713 619.094 100.515 620.494 100.515C621.824 100.515 623.072 100.748 624.239 101.215C625.429 101.682 626.467 102.405 627.354 103.385C628.264 104.342 628.975 105.567 629.489 107.06C630.002 108.53 630.259 110.268 630.259 112.275C630.259 114.352 630.002 116.137 629.489 117.63C628.975 119.123 628.264 120.348 627.354 121.305C626.444 122.238 625.405 122.927 624.239 123.37C623.072 123.813 621.824 124.035 620.494 124.035ZM620.459 119.17C621.625 119.17 622.535 118.867 623.189 118.26C623.842 117.63 624.297 116.778 624.554 115.705C624.834 114.632 624.974 113.442 624.974 112.135C624.974 110.852 624.834 109.708 624.554 108.705C624.297 107.702 623.842 106.908 623.189 106.325C622.535 105.718 621.625 105.415 620.459 105.415C619.315 105.415 618.417 105.718 617.764 106.325C617.11 106.932 616.655 107.748 616.399 108.775C616.142 109.802 616.014 110.957 616.014 112.24C616.014 113.523 616.142 114.69 616.399 115.74C616.655 116.79 617.11 117.63 617.764 118.26C618.417 118.867 619.315 119.17 620.459 119.17ZM638.341 113.71C637.058 113.71 635.996 113.418 635.156 112.835C634.316 112.252 633.698 111.458 633.301 110.455C632.905 109.452 632.706 108.32 632.706 107.06C632.706 105.8 632.905 104.68 633.301 103.7C633.698 102.697 634.316 101.903 635.156 101.32C635.996 100.737 637.058 100.445 638.341 100.445C639.625 100.445 640.675 100.737 641.491 101.32C642.331 101.903 642.95 102.697 643.346 103.7C643.766 104.68 643.976 105.8 643.976 107.06C643.976 108.32 643.766 109.452 643.346 110.455C642.95 111.458 642.331 112.252 641.491 112.835C640.675 113.418 639.625 113.71 638.341 113.71ZM636.976 107.06C636.976 108.017 637.07 108.798 637.256 109.405C637.443 109.988 637.805 110.28 638.341 110.28C638.878 110.28 639.228 109.988 639.391 109.405C639.578 108.798 639.671 108.017 639.671 107.06C639.671 105.963 639.578 105.17 639.391 104.68C639.228 104.167 638.878 103.91 638.341 103.91C637.805 103.91 637.443 104.167 637.256 104.68C637.07 105.17 636.976 105.963 636.976 107.06ZM652.971 124.98C651.688 124.98 650.626 124.688 649.786 124.105C648.946 123.522 648.328 122.728 647.931 121.725C647.535 120.722 647.336 119.59 647.336 118.33C647.336 117.07 647.535 115.95 647.931 114.97C648.328 113.967 648.946 113.173 649.786 112.59C650.626 112.007 651.688 111.715 652.971 111.715C654.255 111.715 655.305 112.007 656.121 112.59C656.961 113.173 657.58 113.967 657.976 114.97C658.396 115.95 658.606 117.07 658.606 118.33C658.606 119.59 658.396 120.722 657.976 121.725C657.58 122.728 656.961 123.522 656.121 124.105C655.305 124.688 654.255 124.98 652.971 124.98ZM651.606 118.33C651.606 119.287 651.7 120.068 651.886 120.675C652.073 121.258 652.435 121.55 652.971 121.55C653.508 121.55 653.858 121.258 654.021 120.675C654.208 120.068 654.301 119.287 654.301 118.33C654.301 117.233 654.208 116.44 654.021 115.95C653.858 115.437 653.508 115.18 652.971 115.18C652.435 115.18 652.073 115.437 651.886 115.95C651.7 116.44 651.606 117.233 651.606 118.33ZM656.961 100.445L639.951 124.07L635.156 124L652.096 100.445H656.961ZM604.1 153.16C604.1 151.597 604.462 150.197 605.185 148.96C605.932 147.723 606.97 146.755 608.3 146.055C609.63 145.332 611.159 144.97 612.885 144.97C614.635 144.97 616.152 145.332 617.435 146.055C618.719 146.755 619.699 147.723 620.375 148.96C621.075 150.197 621.425 151.597 621.425 153.16C621.425 154.723 621.075 156.135 620.375 157.395C619.699 158.632 618.719 159.612 617.435 160.335C616.152 161.058 614.612 161.42 612.815 161.42C611.135 161.42 609.63 161.093 608.3 160.44C606.994 159.787 605.967 158.842 605.22 157.605C604.474 156.368 604.1 154.887 604.1 153.16ZM609.035 153.195C609.035 153.988 609.199 154.712 609.525 155.365C609.852 155.995 610.295 156.497 610.855 156.87C611.415 157.243 612.045 157.43 612.745 157.43C613.515 157.43 614.18 157.243 614.74 156.87C615.3 156.497 615.732 155.995 616.035 155.365C616.339 154.712 616.49 153.988 616.49 153.195C616.49 152.378 616.339 151.655 616.035 151.025C615.732 150.395 615.3 149.893 614.74 149.52C614.18 149.147 613.515 148.96 612.745 148.96C612.045 148.96 611.415 149.147 610.855 149.52C610.295 149.893 609.852 150.395 609.525 151.025C609.199 151.655 609.035 152.378 609.035 153.195ZM626.755 161V149.975H624.165V145.635H626.755V140.315C626.755 138.308 627.327 136.675 628.47 135.415C629.637 134.132 631.317 133.49 633.51 133.49C634.164 133.49 634.887 133.595 635.68 133.805C636.497 133.992 637.209 134.307 637.815 134.75L635.75 138.285C635.517 137.982 635.237 137.783 634.91 137.69C634.607 137.573 634.315 137.515 634.035 137.515C633.335 137.515 632.764 137.748 632.32 138.215C631.877 138.682 631.655 139.428 631.655 140.455V145.635H636.275V149.975H631.655V161H626.755ZM638.06 161V149.975H635.47V145.635H638.06V140.315C638.06 138.308 638.632 136.675 639.775 135.415C640.942 134.132 642.622 133.49 644.815 133.49C645.469 133.49 646.192 133.595 646.985 133.805C647.802 133.992 648.514 134.307 649.12 134.75L647.055 138.285C646.822 137.982 646.542 137.783 646.215 137.69C645.912 137.573 645.62 137.515 645.34 137.515C644.64 137.515 644.069 137.748 643.625 138.215C643.182 138.682 642.96 139.428 642.96 140.455V145.635H647.58V149.975H642.96V161H638.06Z" fill="white"/>
</g>
</g>
</svg>
